HIERARCHY
ROOT root
{
	OFFSET 0.000000 0.000000 0.000000
	CHANNELS 6 Xposition Yposition Zposition Zrotation Yrotation Xrotation
	JOINT lhip
	{
		OFFSET 0.058581 -0.082280 -0.017664
		CHANNELS 3 Zrotation Yrotation Xrotation
		JOINT lknee
		{
			OFFSET 0.043451 -0.386469 0.008037
			CHANNELS 3 Zrotation Yrotation Xrotation
			JOINT lankle
			{
				OFFSET -0.014790 -0.426874 -0.037428
				CHANNELS 3 Zrotation Yrotation Xrotation
				JOINT ltoe
				{
					OFFSET 0.041054 -0.060286 0.122042
					CHANNELS 3 Zrotation Yrotation Xrotation
					End Site
					{
						OFFSET 0.000000 0.000000 0.000000
					}
				}
			}
		}
	}
	JOINT rhip
	{
		OFFSET -0.060310 -0.090513 -0.013543
		CHANNELS 3 Zrotation Yrotation Xrotation
		JOINT rknee
		{
			OFFSET -0.043257 -0.383688 -0.004843
			CHANNELS 3 Zrotation Yrotation Xrotation
			JOINT rankle
			{
				OFFSET 0.019056 -0.420046 -0.034562
				CHANNELS 3 Zrotation Yrotation Xrotation
				JOINT rtoe
				{
					OFFSET -0.034840 -0.062106 0.130323
					CHANNELS 3 Zrotation Yrotation Xrotation
					End Site
					{
						OFFSET 0.000000 0.000000 0.000000
					}
				}
			}
		}
	}
	JOINT lowerback
	{
		OFFSET 0.004439 0.124404 -0.038385
		CHANNELS 3 Zrotation Yrotation Xrotation
		JOINT upperback
		{
			OFFSET 0.004488 0.137956 0.026820
			CHANNELS 3 Zrotation Yrotation Xrotation
			JOINT chest
			{
				OFFSET -0.002265 0.056032 0.002855
				CHANNELS 3 Zrotation Yrotation Xrotation
				JOINT lowerneck
				{
					OFFSET -0.013390 0.211636 -0.033468
					CHANNELS 3 Zrotation Yrotation Xrotation
					JOINT upperneck
					{
						OFFSET 0.010113 0.088937 0.050410
						CHANNELS 3 Zrotation Yrotation Xrotation
						End Site
						{
							OFFSET 0.000000 0.000000 0.000000
						}
					}
				}
				JOINT lclavicle
				{
					OFFSET 0.071702 0.114000 -0.018898
					CHANNELS 3 Zrotation Yrotation Xrotation
					JOINT lshoulder
					{
						OFFSET 0.122921 0.045205 -0.019046
						CHANNELS 3 Zrotation Yrotation Xrotation
						JOINT lelbow
						{
							OFFSET 0.255332 -0.015649 -0.022946
							CHANNELS 3 Zrotation Yrotation Xrotation
							JOINT lwrist
							{
								OFFSET 0.265709 0.012698 -0.007375
								CHANNELS 3 Zrotation Yrotation Xrotation
								End Site
								{
									OFFSET 0.000000 0.000000 0.000000
								}
							}
						}
					}
				}
				JOINT rclavicle
				{
					OFFSET -0.082954 0.112472 -0.023707
					CHANNELS 3 Zrotation Yrotation Xrotation
					JOINT rshoulder
					{
						OFFSET -0.113228 0.046853 -0.008472
						CHANNELS 3 Zrotation Yrotation Xrotation
						JOINT relbow
						{
							OFFSET -0.260127 -0.014369 -0.031269
							CHANNELS 3 Zrotation Yrotation Xrotation
							JOINT rwrist
							{
								OFFSET -0.269108 0.006794 -0.006027
								CHANNELS 3 Zrotation Yrotation Xrotation
								End Site
								{
									OFFSET 0.000000 0.000000 0.000000
								}
							}
						}
					}
				}
			}
		}
	}
}
MOTION
Frames: 5
Frame Time: 0.033333
-0.215943 0.376080 0.879324 87.537058 -6.671846 105.134824 -0.985094 0.637121 -59.517410 -11.280213 4.035958 46.566555 2.294133 -4.661608 -8.492588 0.000000 -0.000000 0.000000 -14.066553 -18.426713 -52.130189 1.745851 -9.793128 59.884214 4.145484 -0.055660 -24.920203 0.000000 -0.000000 0.000000 16.883957 -0.488112 72.425246 -4.621186 7.236121 7.770738 3.989290 8.078456 2.350568 -14.926133 -19.298146 6.239372 6.579107 -5.398393 -13.452380 -0.501676 -26.053361 -15.715570 -54.758879 -13.839833 32.663289 -85.305748 -77.872567 127.286917 47.746861 -12.483082 -7.585582 -13.945924 39.737971 -7.714893 -6.376107 3.875440 -28.711556 -0.997206 13.612647 -28.181285 -19.348147 12.595393 -5.814541 
-0.194624 0.377124 0.874830 82.865972 -6.730552 104.100291 -4.354228 8.320195 -57.738137 -9.404385 5.056029 48.983362 2.455144 -9.625207 -10.867289 0.000000 -0.000000 0.000000 -13.357600 -17.392887 -50.514529 2.057830 -6.109469 59.196016 4.657964 1.879721 -24.327047 0.000000 -0.000000 0.000000 18.096522 1.960713 75.435908 -6.818658 7.008978 15.466112 4.304189 8.032571 -3.776830 -17.514709 -21.275214 10.064508 8.356976 -3.442067 -18.179114 -0.889814 -28.699328 -15.264108 -53.164103 -11.449855 30.767478 -94.061096 -77.754259 134.547534 46.391082 -13.049652 -6.727597 -14.353256 42.910416 -6.645050 -8.796857 -1.180185 -31.000150 0.290178 13.767433 -30.604367 -18.722246 13.426810 -0.295663 
-0.186551 0.380306 0.869646 83.452287 -6.581737 104.831130 -4.316717 8.872162 -58.987744 -10.096480 5.416502 49.900251 2.059475 -9.951989 -10.536616 0.000000 -0.000000 0.000000 -13.447740 -18.200061 -50.288867 2.982512 -5.716945 58.696201 5.570442 1.488159 -23.571120 0.000000 -0.000000 0.000000 19.010371 1.476340 75.559385 -6.827204 7.044362 16.057427 4.461744 7.911419 -3.594006 -17.797070 -22.192213 10.202639 8.370544 -2.768809 -19.099206 -0.592060 -29.005266 -15.232084 -52.728911 -11.292840 30.064217 -97.413976 -77.294454 136.153688 45.743136 -13.844785 -7.140803 -15.582713 43.118780 -6.937000 -9.839548 -2.378439 -31.831574 0.875703 13.736326 -32.502687 -20.082140 14.323799 2.016642 
-0.182389 0.384612 0.866827 84.498371 -6.617404 106.191536 -3.649251 7.519780 -60.686703 -10.873022 6.252745 50.379090 2.173751 -9.130010 -10.305693 0.000000 -0.000000 0.000000 -14.082436 -18.693332 -50.995638 3.358787 -6.562237 58.688251 5.718409 0.895223 -23.745950 0.000000 -0.000000 0.000000 19.456358 1.028699 74.792468 -6.416457 7.055599 15.238005 4.532116 7.680365 -2.304120 -17.259034 -22.449205 9.700903 8.110022 -2.592344 -19.030100 -0.179668 -28.788036 -15.399944 -52.792718 -11.422246 30.092065 -99.629043 -77.311233 137.426716 45.806360 -14.140178 -7.706037 -16.327233 42.552394 -7.241002 -10.083276 -2.216433 -31.924075 0.567213 13.718231 -32.820292 -19.536748 14.016171 2.961593 
-0.178056 0.388644 0.866389 85.420498 -6.843634 107.532792 -3.526592 6.374048 -61.944908 -11.601827 6.611737 50.309003 2.322930 -8.605066 -10.094554 0.000000 -0.000000 0.000000 -14.594586 -19.297979 -51.635539 3.502740 -7.105046 58.482144 5.907953 0.545014 -23.884557 0.000000 -0.000000 0.000000 19.487112 0.780469 74.242035 -5.984016 6.985830 14.082388 4.686937 7.613273 -1.120583 -16.739112 -22.485173 9.054155 7.922854 -2.800359 -18.799948 0.289137 -28.257701 -15.619548 -53.218101 -11.890974 30.276577 -99.814337 -77.146651 137.328279 46.490205 -14.278677 -8.408521 -16.732008 41.699582 -7.527758 -10.129058 -1.710450 -31.815889 0.361884 13.782586 -32.224659 -20.692482 14.526353 3.883666 
